<?xml version="1.0" standalone="no"?>
<!DOCTYPE svg PUBLIC "-//W3C//DTD SVG 20010904//EN"
 "http://www.w3.org/TR/2001/REC-SVG-20010904/DTD/svg10.dtd">
<svg version="1.0" xmlns="http://www.w3.org/2000/svg"
 width="512.000000pt" height="512.000000pt" viewBox="0 0 512.000000 512.000000"
 preserveAspectRatio="xMidYMid meet">
<metadata>
Created by potrace 1.14, written by Peter Selinger 2001-2017
</metadata>
<g transform="translate(0.000000,512.000000) scale(0.100000,-0.100000)"
fill="#000000" stroke="none">
<path d="M4130 4980 c-100 -16 -177 -39 -251 -76 -58 -29 -72 -47 -67 -84 4
-28 -2 -36 -64 -86 -37 -30 -68 -60 -68 -66 0 -9 -3 -9 -12 0 -16 16 -70 15
-90 0 -31 -25 -108 -153 -137 -227 -47 -121 -60 -200 -56 -341 2 -69 6 -141
10 -161 l7 -36 -1637 -1 c-1740 0 -1676 1 -1718 -47 -50 -58 -47 59 -45 -1849
l3 -1774 31 -39 c17 -21 46 -43 65 -50 46 -16 1219 -17 1254 -1 13 6 28 23 34
38 l9 27 97 -1 c91 -1 98 -3 106 -23 20 -56 -76 -52 1574 -52 1690 0 1558 -5
1613 67 l27 35 3 1613 2 1613 54 55 c103 105 183 248 222 401 22 87 25 303 5
385 -45 188 -147 359 -282 475 -109 94 -280 177 -409 199 -65 11 -224 15 -280
6z"/>
</g>
</svg>
